<?xml version="1.0" encoding="UTF-8" standalone="no"?>
<svg
   xmlns:dc="http://purl.org/dc/elements/1.1/"
   xmlns:cc="http://creativecommons.org/ns#"
   xmlns:rdf="http://www.w3.org/1999/02/22-rdf-syntax-ns#"
   xmlns:svg="http://www.w3.org/2000/svg"
   xmlns="http://www.w3.org/2000/svg"
   xmlns:sodipodi="http://sodipodi.sourceforge.net/DTD/sodipodi-0.dtd"
   xmlns:inkscape="http://www.inkscape.org/namespaces/inkscape"
   width="1277px"
   height="1277px"
   viewBox="0 0 1277 1277"
   version="1.1"
   id="svg1313"
   sodipodi:docname="Viewer.svg"
   inkscape:version="1.0.1 (c497b03c, 2020-09-10)">
  <metadata
     id="metadata1319">
    <rdf:RDF>
      <cc:Work
         rdf:about="">
        <dc:format>image/svg+xml</dc:format>
        <dc:type
           rdf:resource="http://purl.org/dc/dcmitype/StillImage" />
        <dc:title></dc:title>
      </cc:Work>
    </rdf:RDF>
  </metadata>
  <defs
     id="defs1317" />
  <sodipodi:namedview
     pagecolor="#ffffff"
     bordercolor="#666666"
     borderopacity="1"
     objecttolerance="10"
     gridtolerance="10"
     guidetolerance="10"
     inkscape:pageopacity="0"
     inkscape:pageshadow="2"
     inkscape:window-width="1680"
     inkscape:window-height="1050"
     id="namedview1315"
     showgrid="false"
     inkscape:zoom="0.2398706"
     inkscape:cx="84.899154"
     inkscape:cy="1667.269"
     inkscape:window-x="0"
     inkscape:window-y="0"
     inkscape:window-maximized="0"
     inkscape:current-layer="Viewer" />
  <desc
     id="desc1308">Created with Lunacy</desc>
  <g
     id="Viewer"
     transform="translate(2.5 2.5)">
    <path
       id="path1339"
       style="fill:#4d4d4d;fill-opacity:1;stroke:#4d4d4e;stroke-width:5.91496;stroke-miterlimit:4;stroke-dasharray:none;stroke-opacity:1"
       d="m 824.50758,172.92122 c -6.05298,0.005 -12.11188,0.48032 -17.94922,1.24609 -8.932,1.1723 -18.29258,0.90444 -27.51758,0.64063 -3.919,-0.11207 -7.81167,-0.22266 -11.63867,-0.22266 -8.75,0 -17.50576,-0.0341 -26.25976,-0.0684 -17.595,-0.0688 -35.1933,-0.13676 -52.7793,0.0723 -76.587,0.91014 -153.21728,1.44531 -229.86328,1.44531 -28.976,0 -57.98893,0.72461 -87.01563,0.72461 -1.7894,0 -3.57974,-0.0184 -5.36914,-0.0371 -14.5846,-0.1524 -29.03226,-0.30379 -41.03906,9.69336 -20.6874,17.221 -20.1887,43.25483 -19.7168,67.92383 0.0698,3.6494 0.13867,7.26742 0.13867,10.82422 0,62.0391 -0.72461,124.13847 -0.72461,186.23047 v 39.85351 c 0,1.023 -0.004,2.0332 -0.008,3.03321 -0.0555,13.96 -0.10214,25.77096 10.91407,36.79296 18.194,18.203 43.84835,18.17544 67.59374,18.14844 0.90772,-10e-4 1.8113,-0.002 2.7129,-0.002 37.9673,0 75.9287,-0.72656 113.8457,-0.72656 h 32.63086 c 1.223,0 2.58209,-0.0848 3.99609,-0.17383 3.6,-0.227 7.55386,-0.47763 10.50586,0.60937 5.098,1.884 9.28778,8.84838 13.05078,12.60938 10.768,10.768 21.62333,21.91103 31.69531,33.33203 0.84502,0.955 1.77716,2.14273 2.78516,3.42773 4.116,5.244 9.51469,12.12375 15.55469,11.59375 7.527,-0.659 15.58234,-10.88284 21.02734,-15.54882 12.146,-10.406 24.24086,-20.90766 36.25586,-31.47266 5.453,-4.79 11.47891,-12.07842 18.12891,-15.10742 2.607,-1.191 6.10734,-1.00303 9.27734,-0.83203 1.07,0.058 2.10278,0.11328 3.05078,0.11328 h 26.82813 c 32.37,0 64.75497,0.72656 97.16797,0.72656 2.585,0 5.1739,0.0496 7.7539,0.10156 17.283,0.345 34.11658,0.6813 46.14258,-14.5957 2.785,-3.543 4.93811,-7.49275 6.78711,-11.59375 3.501,-7.766 3.34445,-16.20436 3.18945,-24.56836 -0.032,-1.719 -0.0644,-3.43463 -0.0644,-5.14063 V 276.0325 c 0,-5.5263 0.27659,-11.38373 0.55859,-17.39453 0.957,-20.3648 1.99641,-42.48462 -7.30859,-59.41602 -11.17187,-20.31791 -32.7201,-26.31727 -54.33789,-26.30078 z m 6.58398,19.5957 c 7.73143,0.0962 15.4085,1.02928 21.875,5.33203 16.842,11.2076 15.75224,35.6335 14.86524,55.5293 -0.186,4.1837 -0.36328,8.16716 -0.36328,11.78516 0,62.5971 -0.72461,125.11369 -0.72461,187.67969 v 43.47851 c 0,11.42 -0.43495,22.63047 -10.87695,29.85547 -4.252,2.939 -9.32111,2.85634 -14.28711,2.77734 -0.801,-0.013 -1.59963,-0.0254 -2.39063,-0.0254 H 722.44508 c -4.386,0 -8.90389,-0.17747 -13.46289,-0.35547 -9.62,-0.377 -19.4307,-0.75986 -28.5957,0.49414 -7.723,1.058 -15.34235,10.81799 -21.02735,15.70899 -15.684,13.5 -31.39859,31.77505 -49.30859,42.12305 -14.14,-14.131 -27.22103,-29.31057 -41.33203,-43.47657 -4.619,-4.638 -9.63674,-13.29739 -16.67774,-14.27539 -8.838,-1.225 -18.47284,-0.45436 -27.96484,0.30664 -5.788,0.464 -11.52514,0.92383 -16.99414,0.92383 -38.946,0 -77.84114,0.72461 -116.74414,0.72461 -1.782,0 -3.64983,0.0182 -5.58203,0.0352 -19.788,0.178 -46.38945,0.41682 -58.37305,-16.70118 -3.7743,-5.39299 -3.64614,-12.04306 -3.52344,-18.41406 0.0215,-1.12 0.043,-2.23022 0.043,-3.32422 v -44.92773 c 0,-58.871 0.72461,-117.87845 0.72461,-176.81055 0,-3.6027 -0.16479,-7.60976 -0.33789,-11.85156 -0.8348,-20.4626 -1.88935,-46.35647 14.12305,-58.32227 8.3449,-6.2356 19.45412,-5.79576 29.86132,-5.38476 2.67851,0.1058 5.3117,0.20936 7.8379,0.19726 26.7711,-0.129 53.65828,-0.72461 80.48828,-0.72461 95.948,0 191.89604,-0.98691 287.87304,-1.44921 24.597,-0.1181 49.30889,-0.72461 73.96289,-0.72461 1.946,0 3.93622,-0.0462 5.94922,-0.0937 2.54625,-0.06 5.12989,-0.12191 7.70703,-0.0898 z m -214.4121,51.41016 c -4.67602,0.1232 -8.9033,2.90984 -13.0293,4.80664 -8.7,4.0002 -17.28464,8.29345 -26.05664,12.12695 -11.921,5.2091 -23.7628,10.87458 -35.4668,16.55078 -4.538,2.2 -10.43656,4.83255 -10.72656,10.68555 -0.796,16.343 19.06378,6.82131 25.92578,3.44531 13.369,-6.577 27.1292,-12.36087 40.5332,-18.85547 5.038,-2.4411 13.2033,-8.31054 18.82032,-8.31054 7.85298,0 18.95564,8.63544 26.05664,11.89844 22.047,10.138 43.47123,22.05462 65.86523,31.39062 -22.43,10.631 -46.43838,18.60003 -69.48437,27.83203 -1.69201,0.677 -3.80768,1.723 -6.13868,2.875 -6.787,3.353 -15.39558,7.60592 -20.64258,6.29492 -8.57699,-2.141 -17.24898,-7.42976 -25.33398,-11.00976 l -52.11328,-22.99219 c -1.672,-0.74 -3.76394,-1.87191 -6.08594,-3.12891 -7.59,-4.107 -17.64155,-9.54567 -23.56054,-7.01367 -7.472,3.198 -6.98224,16.50085 -6.65626,25.33985 0.059,1.599 0.11133,3.05148 0.11133,4.27148 0,26.239 -1.77283,52.77491 -2.92383,79.00391 -0.085,1.936 -0.44876,4.37434 -0.84374,7.02734 -1.14901,7.699 -2.56385,17.19309 1.78515,21.37109 6.536,6.273 17.79914,9.20152 25.86914,13.10352 21.331,10.308 43.15997,19.62108 64.41797,30.08008 1.985,0.976 4.25722,2.24151 6.69922,3.60351 8.403,4.688 18.82966,10.50552 26.59766,9.47852 7.071,-0.935 15.26389,-7.39992 21.71289,-10.54492 l 46.32421,-22.47071 c 11.54501,-5.631 23.26415,-10.93168 34.74415,-16.67968 4.567,-2.285 11.45687,-4.2798 14.54687,-8.5918 3.971,-5.535 3.16367,-16.39358 2.51367,-25.14258 -0.216,-2.911 -0.41406,-5.58681 -0.41406,-7.75781 0,-4.578 -0.0306,-9.19503 -0.0605,-13.83203 -0.103,-15.681 -0.20639,-31.59478 0.84961,-47.05078 0.579,-8.473 0.61521,-16.85914 0.65821,-25.36914 0.005,-1.115 0.1451,-2.2838 0.2871,-3.4668 0.27301,-2.278 0.55091,-4.60369 -0.12109,-6.67969 -3.011,-9.269 -19.72192,-13.30475 -27.66992,-17.21875 -22.568,-11.11 -45.30406,-21.87971 -68.03906,-32.63281 -2.286,-1.0809 -4.84016,-2.55076 -7.53516,-4.10156 -6.931,-3.9876 -14.79303,-8.51074 -21.41601,-8.33594 z m 104.95117,78.95898 c 1.829,4.362 1.40159,10.68785 1.01757,16.33985 -0.14999,2.197 -0.29296,4.2909 -0.29296,6.1289 0,17.863 -0.71761,35.73077 -0.72461,53.63477 0,5.818 -0.72266,11.55848 -0.72266,17.39648 0,0.494 0.0285,1.04596 0.0605,1.62696 0.109,2.021 0.23836,4.39281 -0.80664,5.88281 -1.477,2.114 -4.9948,2.87573 -7.2168,3.92773 -6.087,2.878 -11.9937,6.13457 -18.0957,8.97657 -21.541,10.031 -43.79785,25.19648 -66.58985,31.77148 0,-22.992 0.72461,-45.88947 0.72461,-68.85547 0,-0.575 0.008,-1.19665 0.0156,-1.84765 0.09,-7.18 0.22922,-18.29377 -9.42578,-18.25977 -9.759,0.035 -9.56355,11.24409 -9.43555,18.62109 0.013,0.786 0.0254,1.52994 0.0254,2.21094 v 69.58008 c -7.448,-1.326 -14.80789,-6.44144 -21.71289,-9.52344 -16.995,-7.584 -33.91197,-15.5319 -50.66797,-23.6289 -5.37,-2.596 -20.86017,-6.56041 -23.45117,-12.06641 -2.115,-4.505 -1.23531,-11.44459 -0.44531,-17.68359 0.378,-2.984 0.73437,-5.80791 0.73437,-8.12891 0,-24.892 2.89649,-49.7723 2.89649,-74.6543 l 24.60937,10.25 46.32422,20.41406 24.60937,10.39844 9.40821,-2.9375 20.99218,-8.26172 z M 610.21656,667.92903 c -1.21421,-0.0133 -2.42383,-0.0117 -3.62695,0.006 -4.44228,0.0647 -8.80094,0.34764 -13.02344,0.90039 -8.121,1.072 -16.47334,0.48558 -24.65234,1.26758 -18.402,1.76 -36.50591,5.23669 -54.37891,9.92969 -65.399,17.181 -123.72912,56.33201 -171.11132,103.66601 -15.4001,15.385 -29.3297,32.15991 -42.7793,49.25391 -0.8023,1.02 -1.7838,2.1672 -2.8457,3.4082 -4.39909,5.138 -10.15393,11.86071 -10.03711,17.59571 0.15951,7.591 10.97011,15.06625 15.57421,20.28125 16.77772,18.999 36.26697,36.18081 56.03907,52.00781 84.7151,67.81098 192.12214,109.21312 301.61914,94.82812 81.626,-10.728 158.22206,-52.60764 213.28906,-113.51562 12.224,-13.523 23.7748,-27.32172 34.5918,-42.01172 0.759,-1.028 1.71137,-2.18378 2.73437,-3.42578 3.631,-4.406 8.16044,-9.90294 8.14844,-14.71094 -0.014,-7.454 -9.76577,-15.77556 -14.38477,-20.97656 -14.791,-16.645 -29.88645,-32.99274 -46.43945,-47.92774 -55.285,-49.884 -120.6335,-88.73707 -194.3125,-103.45507 -16.85074,-3.36528 -36.19111,-6.92083 -54.4043,-7.1211 z m 9.25977,27.14258 c 100.20562,0.23009 192.54508,98.38477 162.08008,199.44727 -4.88,16.182 -12.77606,31.3202 -22.78906,44.9082 -12.188,16.522 -28.02236,29.75444 -45.56836,40.27144 -21.07,12.633 -45.24347,20.30988 -69.60547,23.25788 -68.901,8.345 -143.69011,-24.56008 -177.41211,-86.70706 -10.963,-20.201 -16.06752,-41.76384 -18.22852,-64.46484 -1.276,-13.371 1.4496,-27.6475 4.6836,-40.5625 4.169,-16.652 11.5574,-32.23847 21.3164,-46.35547 11.086,-16.044 25.55921,-30.02239 42.03321,-40.52539 25.819,-16.449 53.3259,-24.02647 83.3789,-27.98047 6.71625,-0.88325 13.43096,-1.3044 20.11133,-1.28906 z m -95.76367,2.22656 c 0.86106,-0.0251 1.67394,0.0343 2.42187,0.20508 -17.597,7.316 -33.75695,19.96331 -47.12695,33.32031 -13.399,13.385 -25.25272,28.47886 -33.51172,45.63086 -35.788,74.381 -7.73594,161.28638 58.16406,208.6055 v 0.7246 c -77.124,-25.112 -138.18115,-76.0028 -194.31445,-132.5508 v -0.72461 c 13.1669,-15.197 24.73079,-31.60242 38.49219,-46.35742 33.0333,-35.426 71.90375,-64.74 115.21875,-86.375 14.486,-7.236 29.58912,-12.85578 44.95312,-17.92578 1.05,-0.346 2.24821,-0.79535 3.53321,-1.27735 3.83418,-1.43893 8.43863,-3.16658 12.16992,-3.27539 z m 217.03711,23.38477 c 15.045,4.332 30.5179,15.34834 43.5039,23.90234 29.364,19.332 57.53939,41.18472 81.90039,66.63672 8.338,8.714 16.54696,17.62378 24.37696,26.80078 0.458,0.537 1.0617,1.15317 1.7207,1.82617 2.351,2.401 5.40908,5.52546 5.08008,8.31446 -0.435,3.672 -4.98095,7.99623 -7.12695,10.86523 -6.706,8.938 -13.64579,17.60022 -20.92579,26.07422 -31.452,36.644 -72.62734,71.09251 -117.65234,89.81636 4.147,-5.867 10.25767,-10.5105 15.01367,-15.9355 8.549,-9.742 15.58328,-20.50514 21.73828,-31.86914 25.486,-47.081 23.15755,-106.59903 -2.98047,-152.83203 -7.92399,-14.001 -17.66904,-26.70538 -28.74804,-38.35938 -5.017,-5.273 -11.65139,-9.33623 -15.90039,-15.24023 z M 568.38649,730.9388 c -0.54721,0.0281 -1.09422,0.0898 -1.63672,0.18554 -16.781,2.978 -33.01081,13.18894 -44.88281,25.08594 -37.47101,37.535 -44.47958,97.46882 -23.26758,145.25782 9.295,20.93899 23.40484,39.44478 42.08984,52.80078 0.592,0.424 1.22549,0.89076 1.89648,1.38476 5.599,4.124 13.71138,10.09848 20.23438,7.73048 6.11,-2.222 8.32356,-10.34226 3.72656,-15.28126 -5.864,-6.297 -15.62928,-9.79723 -22.23828,-15.61523 -14.928,-13.131 -25.8448,-30.34474 -32.0918,-49.17774 -12.763,-38.435 -7.17348,-87.30753 24.85352,-115.26953 7.362,-6.427 15.52633,-11.70641 24.61133,-15.31641 5.082,-2.019 13.06023,-2.36757 16.61523,-6.89257 6.54188,-8.32688 -1.702,-15.31412 -9.91015,-14.89258 z m 47.94531,65.58789 c -2.47042,0.0495 -5.00386,0.26994 -7.59375,0.67578 -54.534,8.541 -60.20989,86.92191 -7.96289,104.00391 8.368,2.738 17.44656,2.84009 26.06054,1.49609 6.95,-1.075 13.68988,-3.96608 19.54688,-7.83008 44.64914,-29.44108 20.18115,-99.35267 -30.05078,-98.3457 z m 1.2832,18.81055 c 34.04857,-0.74634 46.14181,48.44996 16.46094,64.84375 -4.612,2.542 -9.94013,4.15262 -15.20313,4.51562 -34.568,2.375 -49.86353,-45.86348 -20.26953,-63.89648 5.183,-3.16 11.33605,-4.97663 17.37305,-5.39063 0.55144,-0.0373 1.09822,-0.0604 1.63867,-0.0723 z" />
    <path
       d="M0 0L1272 0L1272 1272L0 1272L0 0Z"
       id="Rectangle"
       fill="none"
       fill-rule="evenodd"
       stroke="none" />
  </g>
</svg>
